<svg width="29" height="31" viewBox="0 0 29 31" fill="none" xmlns="http://www.w3.org/2000/svg">
    <g filter="url(#filter0_silver)">
        <!-- Тень под куском -->
        <ellipse cx="14" cy="26" rx="8" ry="2.5" fill="#4A4A4A" fill-opacity="0.3"/>

        <!-- Основная масса куска - неровная форма -->
        <path d="M6 18L4 12L8 7L14 5L20 6L24 10L26 16L24 22L20 25L10 26L6 22V18Z" fill="#C0C0C0"/>

        <!-- Тёмные грани (тени) -->
        <path d="M6 18L4 12L8 9L10 14L6 18Z" fill="#808080"/>
        <path d="M10 26L6 22L6 18L10 21L10 26Z" fill="#707070"/>
        <path d="M20 25L24 22L24 18L20 21V25Z" fill="#686868"/>
        <path d="M24 22L26 16L24 12L22 17L24 22Z" fill="#808080"/>

        <!-- Средние тона - основные плоскости -->
        <path d="M8 9L14 7L18 8L14 13L10 14L8 9Z" fill="#A8A8A8"/>
        <path d="M18 8L22 10L24 12L20 14L14 13L18 8Z" fill="#989898"/>
        <path d="M10 14L14 13L14 19L10 21L10 14Z" fill="#B8B8B8"/>
        <path d="M14 13L20 14L20 21L14 19V13Z" fill="#A0A0A0"/>
        <path d="M10 21L14 19L20 21L20 25L10 26L10 21Z" fill="#888888"/>

        <!-- Светлые грани (блики) -->
        <path d="M14 5L20 6L18 8L14 7L14 5Z" fill="#D8D8D8"/>
        <path d="M8 7L14 5L14 7L8 9L8 7Z" fill="#E8E8E8"/>
        <path d="M20 6L24 10L22 10L18 8L20 6Z" fill="#D0D0D0"/>

        <!-- Текстура - неровности поверхности -->
        <ellipse cx="12" cy="11" rx="1.5" ry="1" fill="#909090"/>
        <ellipse cx="17" cy="16" rx="2" ry="1.2" fill="#7A7A7A"/>
        <ellipse cx="11" cy="19" rx="1.2" ry="0.8" fill="#808080"/>
        <ellipse cx="18" cy="22" rx="1.5" ry="0.9" fill="#707070"/>
        <circle cx="15" cy="10" r="0.8" fill="#858585"/>
        <circle cx="21" cy="17" r="1" fill="#686868"/>

        <!-- Яркие блики - металлический блеск -->
        <path d="M10 7.5L13 6L14 7L11 8.5L10 7.5Z" fill="#F0F0F0" fill-opacity="0.95"/>
        <path d="M15 6L18 7L17 8L15 7.5V6Z" fill="#FFFFFF" fill-opacity="0.9"/>

        <!-- Искры/точечные блики -->
        <circle cx="12" cy="7" r="0.8" fill="#FFFFFF"/>
        <circle cx="19" cy="8" r="0.6" fill="#F8F8F8" fill-opacity="0.95"/>
        <circle cx="9" cy="10" r="0.5" fill="#FFFFFF"/>
        <circle cx="16" cy="6.5" r="0.4" fill="#FFFFFF"/>

        <!-- Потускнение (тёмные пятна окисления) -->
        <ellipse cx="8" cy="15" rx="1" ry="0.7" fill="#505050" fill-opacity="0.3"/>
        <ellipse cx="22" cy="20" rx="0.8" ry="0.6" fill="#484848" fill-opacity="0.25"/>
        <circle cx="13" cy="23" r="0.6" fill="#555555" fill-opacity="0.3"/>
    </g>
    <defs>
        <filter id="filter0_silver" x="0" y="0" width="29" height="31" filterUnits="userSpaceOnUse" color-interpolation-filters="sRGB">
            <feFlood flood-opacity="0" result="BackgroundImageFix"/>
            <feColorMatrix in="SourceAlpha" type="matrix" values="0 0 0 0 0 0 0 0 0 0 0 0 0 0 0 0 0 0 127 0" result="hardAlpha"/>
            <feOffset dx="1" dy="2"/>
            <feGaussianBlur stdDeviation="2"/>
            <feComposite in2="hardAlpha" operator="out"/>
            <feColorMatrix type="matrix" values="0 0 0 0 0 0 0 0 0 0 0 0 0 0 0 0 0 0 0.25 0"/>
            <feBlend mode="normal" in2="BackgroundImageFix" result="effect1_dropShadow"/>
            <feBlend mode="normal" in="SourceGraphic" in2="effect1_dropShadow" result="shape"/>
        </filter>
    </defs>
</svg>
