<svg width="29" height="31" viewBox="0 0 29 31" fill="none" xmlns="http://www.w3.org/2000/svg">
  <g filter="url(#filter0_silk)">

    <!-- Верхний фланец -->
    <ellipse cx="14.5" cy="4.5" rx="11.5" ry="3.5" fill="#C89010"/>
    <ellipse cx="14.5" cy="4.5" rx="11.5" ry="3.5" stroke="#9A6A08" stroke-width="0.6"/>
    <ellipse cx="14.5" cy="4"   rx="10.5" ry="2.6" fill="#E8B020"/>
    <ellipse cx="12"   cy="3.4" rx="4"    ry="1"   fill="#FFE060" opacity="0.7"/>

    <!-- Боковые стенки бобины -->
    <rect x="3"  y="4.5" width="3" height="20" rx="0.5" fill="#B88010"/>
    <rect x="23" y="4.5" width="3" height="20" rx="0.5" fill="#D09818"/>

    <!-- Намотанная нить — слои -->
    <ellipse cx="14.5" cy="7"  rx="8" ry="2.2" fill="#F0C030"/>
    <ellipse cx="14.5" cy="9"  rx="8" ry="2.2" fill="#EDB828"/>
    <ellipse cx="14.5" cy="11" rx="8" ry="2.2" fill="#F0C030"/>
    <ellipse cx="14.5" cy="13" rx="8" ry="2.2" fill="#EDB828"/>
    <ellipse cx="14.5" cy="15" rx="8" ry="2.2" fill="#F0C030"/>
    <ellipse cx="14.5" cy="17" rx="8" ry="2.2" fill="#EDB828"/>
    <ellipse cx="14.5" cy="19" rx="8" ry="2.2" fill="#F0C030"/>
    <ellipse cx="14.5" cy="21" rx="8" ry="2.2" fill="#EDB828"/>

    <!-- Линии между витками -->
    <line x1="6.5" y1="8"  x2="22.5" y2="8"  stroke="#9A7008" stroke-width="0.4" opacity="0.5"/>
    <line x1="6.5" y1="10" x2="22.5" y2="10" stroke="#9A7008" stroke-width="0.4" opacity="0.5"/>
    <line x1="6.5" y1="12" x2="22.5" y2="12" stroke="#9A7008" stroke-width="0.4" opacity="0.5"/>
    <line x1="6.5" y1="14" x2="22.5" y2="14" stroke="#9A7008" stroke-width="0.4" opacity="0.5"/>
    <line x1="6.5" y1="16" x2="22.5" y2="16" stroke="#9A7008" stroke-width="0.4" opacity="0.5"/>
    <line x1="6.5" y1="18" x2="22.5" y2="18" stroke="#9A7008" stroke-width="0.4" opacity="0.5"/>
    <line x1="6.5" y1="20" x2="22.5" y2="20" stroke="#9A7008" stroke-width="0.4" opacity="0.5"/>

    <!-- Атласный блик на намотке -->
    <ellipse cx="10.5" cy="14" rx="2.2" ry="9"   fill="#FFF080" opacity="0.22"/>
    <ellipse cx="9.5"  cy="13" rx="0.9" ry="6.5" fill="#FFFFFF" opacity="0.18"/>

    <!-- Нижний фланец -->
    <ellipse cx="14.5" cy="24.5" rx="11.5" ry="3.5" fill="#C89010"/>
    <ellipse cx="14.5" cy="24.5" rx="11.5" ry="3.5" stroke="#9A6A08" stroke-width="0.6"/>
    <ellipse cx="14.5" cy="24"   rx="10.5" ry="2.6" fill="#DDA018"/>
    <ellipse cx="14.5" cy="24.5" rx="9"    ry="1.6" fill="#B88010" opacity="0.5"/>

    <!-- Свободный конец нити -->
    <path d="M23 23 Q25 26 23 29 Q21 30 19.5 29.5" stroke="#F0C030" stroke-width="1.2" stroke-linecap="round" fill="none"/>
    <circle cx="19.5" cy="29.5" r="0.8" fill="#FFE050"/>

  </g>
  <defs>
    <filter id="filter0_silk" x="0" y="0" width="29" height="31" filterUnits="userSpaceOnUse" color-interpolation-filters="sRGB">
      <feFlood flood-opacity="0" result="BackgroundImageFix"/>
      <feColorMatrix in="SourceAlpha" type="matrix" values="0 0 0 0 0 0 0 0 0 0 0 0 0 0 0 0 0 0 127 0" result="hardAlpha"/>
      <feOffset dx="1" dy="2"/>
      <feGaussianBlur stdDeviation="2"/>
      <feComposite in2="hardAlpha" operator="out"/>
      <feColorMatrix type="matrix" values="0 0 0 0 0 0 0 0 0 0 0 0 0 0 0 0 0 0 0.3 0"/>
      <feBlend mode="normal" in2="BackgroundImageFix" result="effect1_dropShadow"/>
      <feBlend mode="normal" in="SourceGraphic" in2="effect1_dropShadow" result="shape"/>
    </filter>
  </defs>
</svg>
