<svg width="29" height="31" viewBox="0 0 29 31" fill="none" xmlns="http://www.w3.org/2000/svg">
  <g filter="url(#f_gem)">
    <!-- Бриллиант (огранка) -->
    <!-- Корона (верхняя часть) -->
    <path d="M8.5 4 L20.5 4 L25.5 9 L14.5 9 L3.5 9 Z"            fill="url(#gem_crown)"/>
    <!-- Стол (верхняя грань) -->
    <rect x="9.5" y="3.5" width="10" height="1" rx="0.3"          fill="#FFFFFF" opacity="0.45"/>
    <!-- Павильон (нижняя часть, до точки) -->
    <path d="M3.5 9 L14.5 9 L25.5 9 L14.5 28 Z"                   fill="url(#gem_pavil)"/>
    <!-- Грани короны -->
    <line x1="14.5" y1="4"  x2="3.5"  y2="9"  stroke="#FFFFFF" stroke-width="0.4" opacity="0.5"/>
    <line x1="14.5" y1="4"  x2="25.5" y2="9"  stroke="#FFFFFF" stroke-width="0.4" opacity="0.5"/>
    <line x1="9.5"  y1="3.5" x2="3.5" y2="9"  stroke="#FFFFFF" stroke-width="0.3" opacity="0.4"/>
    <line x1="19.5" y1="3.5" x2="25.5" y2="9" stroke="#FFFFFF" stroke-width="0.3" opacity="0.4"/>
    <!-- Грани павильона -->
    <line x1="3.5"  y1="9" x2="14.5" y2="28"  stroke="#FFFFFF" stroke-width="0.4" opacity="0.35"/>
    <line x1="25.5" y1="9" x2="14.5" y2="28"  stroke="#FFFFFF" stroke-width="0.4" opacity="0.35"/>
    <line x1="8.5"  y1="9" x2="14.5" y2="28"  stroke="#FFFFFF" stroke-width="0.3" opacity="0.3"/>
    <line x1="20.5" y1="9" x2="14.5" y2="28"  stroke="#FFFFFF" stroke-width="0.3" opacity="0.3"/>
    <line x1="14.5" y1="9" x2="14.5" y2="28"  stroke="#FFFFFF" stroke-width="0.35" opacity="0.3"/>
    <!-- Рундист (линия-пояс) -->
    <line x1="3.5"  y1="9" x2="25.5" y2="9"   stroke="#FFFFFF" stroke-width="0.6" opacity="0.55"/>
    <!-- Внутренний блик (стол) -->
    <path d="M9.5 4 L20.5 4 L23 9 L6 9 Z" fill="#FFFFFF" opacity="0.08"/>
    <!-- Искры -->
    <circle cx="10" cy="6.5" r="0.7" fill="#FFFFFF" opacity="0.7"/>
    <circle cx="21" cy="7"   r="0.5" fill="#FFFFFF" opacity="0.6"/>
    <circle cx="8"  cy="14"  r="0.5" fill="#A0C0FF" opacity="0.6"/>
  </g>
  <defs>
    <linearGradient id="gem_crown" x1="3.5" y1="4" x2="25.5" y2="9" gradientUnits="userSpaceOnUse">
      <stop offset="0%"   stop-color="#80B0F0"/>
      <stop offset="50%"  stop-color="#C0D8FF"/>
      <stop offset="100%" stop-color="#7090E0"/>
    </linearGradient>
    <linearGradient id="gem_pavil" x1="3.5" y1="9" x2="25.5" y2="28" gradientUnits="userSpaceOnUse">
      <stop offset="0%"   stop-color="#4878D0"/>
      <stop offset="40%"  stop-color="#2050A8"/>
      <stop offset="100%" stop-color="#1030708"/>
    </linearGradient>
    <filter id="f_gem" x="0" y="0" width="29" height="31" filterUnits="userSpaceOnUse" color-interpolation-filters="sRGB">
      <feFlood flood-opacity="0" result="BackgroundImageFix"/>
      <feColorMatrix in="SourceAlpha" type="matrix" values="0 0 0 0 0 0 0 0 0 0 0 0 0 0 0 0 0 0 127 0" result="hardAlpha"/>
      <feOffset dx="1" dy="2"/><feGaussianBlur stdDeviation="2"/>
      <feComposite in2="hardAlpha" operator="out"/>
      <feColorMatrix type="matrix" values="0 0 0 0 0 0 0 0 0 0 0 0 0 0 0 0 0 0 0.3 0"/>
      <feBlend mode="normal" in2="BackgroundImageFix" result="effect1_dropShadow"/>
      <feBlend mode="normal" in="SourceGraphic" in2="effect1_dropShadow" result="shape"/>
    </filter>
  </defs>
</svg>
