<svg width="29" height="31" viewBox="0 0 29 31" fill="none" xmlns="http://www.w3.org/2000/svg">
  <g filter="url(#f_orb)">
    <!-- Подставка -->
    <ellipse cx="14.5" cy="29" rx="6" ry="1.8" fill="#5A3A10"/>
    <rect x="11.5" y="23.5" width="6" height="6" rx="1" fill="#6A4818"/>
    <rect x="11.5" y="23.5" width="6" height="2" rx="0.8" fill="#9A6828"/>
    <!-- Шейка подставки -->
    <rect x="13" y="21" width="3" height="4" rx="0.5" fill="#7A5418"/>
    <!-- Шар (основа) -->
    <circle cx="14.5" cy="12" r="10" fill="url(#orb_base)"/>
    <!-- Магический туман -->
    <circle cx="14.5" cy="12" r="8.5" fill="url(#orb_inner)" opacity="0.7"/>
    <!-- Вихри -->
    <path d="M7 12 Q14.5 5.5 22 12 Q14.5 18.5 7 12 Z" fill="#8018C0" opacity="0.22"/>
    <path d="M8 9 Q14.5 15 21 9"  stroke="#C058FF" stroke-width="1" fill="none" opacity="0.35"/>
    <path d="M8 15 Q14.5 9  21 15" stroke="#7018A0" stroke-width="1" fill="none" opacity="0.35"/>
    <!-- Искры -->
    <circle cx="11"  cy="10"  r="1"   fill="#E070FF" opacity="0.9"/>
    <circle cx="18.5" cy="14.5" r="0.75" fill="#FFD0FF" opacity="0.85"/>
    <circle cx="17"  cy="8.5" r="0.65" fill="#C040FF" opacity="0.9"/>
    <circle cx="11.5" cy="16" r="0.55" fill="#D090FF" opacity="0.75"/>
    <circle cx="14.5" cy="7"  r="0.5"  fill="#F0C0FF" opacity="0.7"/>
    <!-- Блик (стеклянный) -->
    <ellipse cx="11"  cy="8"   rx="3.5" ry="2.5" fill="#FFFFFF" opacity="0.22"/>
    <ellipse cx="10.5" cy="7.5" rx="1.8" ry="1.1" fill="#FFFFFF" opacity="0.32"/>
    <!-- Контур шара -->
    <circle cx="14.5" cy="12" r="10" stroke="#7030A0" stroke-width="0.5" fill="none" opacity="0.4"/>
  </g>
  <defs>
    <radialGradient id="orb_base" cx="10" cy="8" r="15" gradientUnits="userSpaceOnUse">
      <stop offset="0%"   stop-color="#5020B0"/>
      <stop offset="55%"  stop-color="#200870"/>
      <stop offset="100%" stop-color="#0C0428"/>
    </radialGradient>
    <radialGradient id="orb_inner" cx="14.5" cy="12" r="9" gradientUnits="userSpaceOnUse">
      <stop offset="0%"   stop-color="#8038C0"/>
      <stop offset="100%" stop-color="#200868" stop-opacity="0"/>
    </radialGradient>
    <filter id="f_orb" x="0" y="0" width="29" height="31" filterUnits="userSpaceOnUse" color-interpolation-filters="sRGB">
      <feFlood flood-opacity="0" result="BackgroundImageFix"/>
      <feColorMatrix in="SourceAlpha" type="matrix" values="0 0 0 0 0 0 0 0 0 0 0 0 0 0 0 0 0 0 127 0" result="hardAlpha"/>
      <feOffset dx="1" dy="2"/><feGaussianBlur stdDeviation="2"/>
      <feComposite in2="hardAlpha" operator="out"/>
      <feColorMatrix type="matrix" values="0 0 0 0 0 0 0 0 0 0 0 0 0 0 0 0 0 0 0.3 0"/>
      <feBlend mode="normal" in2="BackgroundImageFix" result="effect1_dropShadow"/>
      <feBlend mode="normal" in="SourceGraphic" in2="effect1_dropShadow" result="shape"/>
    </filter>
  </defs>
</svg>
