<svg width="29" height="31" viewBox="0 0 29 31" fill="none" xmlns="http://www.w3.org/2000/svg">
  <g filter="url(#f_staff)">
    <!-- Посох (древко) -->
    <rect x="13.2" y="11.5" width="3.1" height="17.5" rx="1.5" fill="url(#staff_wood)"/>
    <rect x="13.2" y="11.5" width="1.3" height="17.5" rx="1"   fill="#C09050" opacity="0.32"/>
    <!-- Намотка -->
    <line x1="13.2" y1="16"   x2="16.3" y2="16"   stroke="#5A3010" stroke-width="0.7"/>
    <line x1="13.2" y1="20.5" x2="16.3" y2="20.5" stroke="#5A3010" stroke-width="0.7"/>
    <line x1="13.2" y1="25"   x2="16.3" y2="25"   stroke="#5A3010" stroke-width="0.7"/>
    <!-- Нижний наконечник -->
    <ellipse cx="14.75" cy="29.4" rx="2"   ry="0.9" fill="#7A5020"/>
    <!-- Оправа (металлические лапы) -->
    <path d="M10 11.5 Q14.75 14.5 19.5 11.5" stroke="#C8A030" stroke-width="1.5" fill="none" stroke-linecap="round"/>
    <line x1="14.75" y1="11.5" x2="14.75" y2="13.5" stroke="#A08020" stroke-width="2.5" stroke-linecap="round"/>
    <!-- Магический шар -->
    <circle cx="14.75" cy="6.5" r="6.5" fill="url(#staff_orb_bg)"/>
    <circle cx="14.75" cy="6.5" r="5.5" fill="url(#staff_orb_in)" opacity="0.75"/>
    <!-- Вихрь внутри -->
    <path d="M9.5 6.5 Q14.75 1.5 20 6.5 Q14.75 11.5 9.5 6.5 Z" fill="#6020A0" opacity="0.28"/>
    <path d="M10.5 4 Q14.75 8.5 19 4"  stroke="#C058FF" stroke-width="0.8" fill="none" opacity="0.4"/>
    <path d="M10.5 9 Q14.75 4.5 19 9"  stroke="#8020A0" stroke-width="0.8" fill="none" opacity="0.4"/>
    <!-- Искры -->
    <circle cx="17.5" cy="5"   r="0.8" fill="#E080FF" opacity="0.9"/>
    <circle cx="12"   cy="8.5" r="0.6" fill="#C050FF" opacity="0.85"/>
    <circle cx="16.5" cy="9.5" r="0.5" fill="#D0A0FF" opacity="0.75"/>
    <!-- Блик -->
    <ellipse cx="12.5" cy="4.5" rx="2.2" ry="1.4" fill="#FFFFFF" opacity="0.32"/>
    <ellipse cx="12"   cy="4"   rx="1.1" ry="0.7" fill="#FFFFFF" opacity="0.42"/>
    <!-- Контур шара -->
    <circle cx="14.75" cy="6.5" r="6.5" stroke="#7030A0" stroke-width="0.45" fill="none" opacity="0.4"/>
  </g>
  <defs>
    <radialGradient id="staff_orb_bg" cx="11" cy="4" r="10" gradientUnits="userSpaceOnUse">
      <stop offset="0%"   stop-color="#5020B8"/>
      <stop offset="55%"  stop-color="#200870"/>
      <stop offset="100%" stop-color="#0C0428"/>
    </radialGradient>
    <radialGradient id="staff_orb_in" cx="14.75" cy="6.5" r="6" gradientUnits="userSpaceOnUse">
      <stop offset="0%"   stop-color="#8040D0"/>
      <stop offset="100%" stop-color="#200860" stop-opacity="0"/>
    </radialGradient>
    <linearGradient id="staff_wood" x1="13.2" y1="11.5" x2="16.3" y2="29" gradientUnits="userSpaceOnUse">
      <stop offset="0%"   stop-color="#A87040"/>
      <stop offset="100%" stop-color="#5A3010"/>
    </linearGradient>
    <filter id="f_staff" x="0" y="0" width="29" height="31" filterUnits="userSpaceOnUse" color-interpolation-filters="sRGB">
      <feFlood flood-opacity="0" result="BackgroundImageFix"/>
      <feColorMatrix in="SourceAlpha" type="matrix" values="0 0 0 0 0 0 0 0 0 0 0 0 0 0 0 0 0 0 127 0" result="hardAlpha"/>
      <feOffset dx="1" dy="2"/><feGaussianBlur stdDeviation="2"/>
      <feComposite in2="hardAlpha" operator="out"/>
      <feColorMatrix type="matrix" values="0 0 0 0 0 0 0 0 0 0 0 0 0 0 0 0 0 0 0.3 0"/>
      <feBlend mode="normal" in2="BackgroundImageFix" result="effect1_dropShadow"/>
      <feBlend mode="normal" in="SourceGraphic" in2="effect1_dropShadow" result="shape"/>
    </filter>
  </defs>
</svg>
